<?xml version="1.0" encoding="UTF-8"?>
<svg width="24px" height="24px" viewBox="0 0 24 24" version="1.1" xmlns="http://www.w3.org/2000/svg" xmlns:xlink="http://www.w3.org/1999/xlink">
    <!-- Generator: Sketch 59.1 (86144) - https://sketch.com -->
    <title>2</title>
    <desc>Created with Sketch.</desc>
    <g id="页面-1" stroke="none" stroke-width="1" fill="none" fill-rule="evenodd">
        <g id="画板" transform="translate(-687.000000, -310.000000)" fill="#FF3B30">
            <g id="反馈:6/警告提示:1/图标和文本错误:9" transform="translate(663.000000, 294.000000)">
                <g id="反馈:6/警告提示/图标和文本错误">
                    <g id="反馈/警告提示/图标和文本含辅助文字/错误">
                        <path d="M40.809375,32.8234375 C40.4789062,33.1515625 39.9445312,33.1515625 39.6164062,32.8210937 L36,29.1953125 L32.3835937,32.8210938 C32.0554687,33.1515625 31.5210937,33.1515625 31.190625,32.8234375 C30.8601562,32.4953125 30.8601562,31.9609375 31.1882812,31.6304687 L34.809375,28 L31.1882812,24.3695313 C30.8601562,24.0390625 30.8601562,23.5046875 31.190625,23.1765625 C31.3546875,23.0125 31.5703125,22.9304687 31.7859375,22.9304687 C32.0015625,22.9304687 32.2195312,23.0125 32.3835937,23.1789063 L36,26.8046875 L39.6164062,23.1765625 C39.7804687,23.0101563 39.9984375,22.928125 40.2140625,22.928125 C40.4296875,22.928125 40.6453125,23.0101563 40.809375,23.1742188 C41.1398437,23.5023438 41.1398437,24.0367187 40.8117187,24.3671875 L37.190625,28 L40.809375,31.6304687 C41.1398437,31.9609375 41.1398437,32.4953125 40.809375,32.8234375 L40.809375,32.8234375 Z M36,40 C29.371875,40 24,34.628125 24,28 C24,21.371875 29.371875,16 36,16 C42.628125,16 48,21.371875 48,28 C48,34.628125 42.628125,40 36,40 L36,40 Z M43.2914062,20.7085937 C42.3445312,19.7617188 41.240625,19.0164062 40.0125,18.4984375 C38.7421875,17.959375 37.3921875,17.6875 36,17.6875 C34.6078125,17.6875 33.2578125,17.959375 31.9875,18.4960938 C30.759375,19.0164062 29.6578125,19.759375 28.7085937,20.70625 C27.7617187,21.653125 27.0164062,22.7570313 26.4984375,23.9851562 C25.959375,25.2578125 25.6875,26.6078125 25.6875,28 C25.6875,29.3921875 25.959375,30.7421875 26.4960937,32.0125 C27.0164062,33.240625 27.759375,34.3421875 28.70625,35.2914063 C29.653125,36.2382812 30.7570312,36.9835937 31.9851562,37.5015625 C33.2578125,38.040625 34.6078125,38.3125 36,38.3125 C37.3921875,38.3125 38.7421875,38.040625 40.0125,37.5039062 C41.240625,36.9835937 42.3421875,36.240625 43.2914062,35.29375 C44.2382812,34.346875 44.9835937,33.2429688 45.5015625,32.0148437 C46.040625,30.7421875 46.3125,29.3921875 46.3125,28 C46.3125,26.6078125 46.040625,25.2578125 45.5039062,23.9875 C44.9835937,22.759375 44.240625,21.6554688 43.2914062,20.7085937 L43.2914062,20.7085937 Z" id="2" transform="translate(36.000000, 28.000000) scale(1, -1) translate(-36.000000, -28.000000) "></path>
                    </g>
                </g>
            </g>
        </g>
    </g>
</svg>