<?xml version="1.0" encoding="UTF-8"?>
<svg width="24px" height="24px" viewBox="0 0 24 24" version="1.1" xmlns="http://www.w3.org/2000/svg" xmlns:xlink="http://www.w3.org/1999/xlink">
    <!-- Generator: Sketch 59.1 (86144) - https://sketch.com -->
    <title>3</title>
    <desc>Created with Sketch.</desc>
    <g id="页面-1" stroke="none" stroke-width="1" fill="none" fill-rule="evenodd">
        <g id="画板" transform="translate(-687.000000, -458.000000)" fill="#4393F5">
            <g id="反馈:6/警告提示:1/图标和文本成功:11" transform="translate(663.000000, 442.000000)">
                <g id="反馈:6/警告提示/图标和文本成功">
                    <g id="反馈/警告提示/图标和文本含辅助文字/成功">
                        <path d="M40.9054687,32.8375 L33.2296875,25.1382812 L31.228125,28.6421875 C30.9960938,29.0476563 30.4828125,29.1882813 30.0773437,28.95625 C29.671875,28.7242188 29.53125,28.2109375 29.7632812,27.8054688 L32.3132812,23.340625 C32.4679687,23.06875 32.7539062,22.9140625 33.046875,22.9140625 C33.1898437,22.9140625 33.3328125,22.9492188 33.4640625,23.0242187 C33.5390625,23.06875 33.6070312,23.1203125 33.6632812,23.18125 C33.665625,23.1835938 33.6703125,23.1882812 33.6726562,23.190625 L42.0984375,31.6421875 C42.4265625,31.9726563 42.4265625,32.5070313 42.0960937,32.8351563 C41.7679687,33.1679688 41.2359375,33.1679688 40.9054687,32.8375 L40.9054687,32.8375 Z M36,40 C29.371875,40 24,34.628125 24,28 C24,21.371875 29.371875,16 36,16 C42.628125,16 48,21.371875 48,28 C48,34.628125 42.628125,40 36,40 L36,40 Z M43.2914063,20.7085937 C42.3445313,19.7617188 41.240625,19.0164062 40.0125,18.4984375 C38.7421875,17.959375 37.3921875,17.6875 36,17.6875 C34.6078125,17.6875 33.2578125,17.959375 31.9875,18.4960938 C30.759375,19.0164062 29.6578125,19.759375 28.7085937,20.70625 C27.7617188,21.653125 27.0164062,22.7570313 26.4984375,23.9851562 C25.959375,25.2578125 25.6875,26.6078125 25.6875,28 C25.6875,29.3921875 25.959375,30.7421875 26.4960938,32.0125 C27.0164062,33.240625 27.759375,34.3421875 28.70625,35.2914063 C29.653125,36.2382812 30.7570313,36.9835937 31.9851563,37.5015625 C33.2578125,38.040625 34.6078125,38.3125 36,38.3125 C37.3921875,38.3125 38.7421875,38.040625 40.0125,37.5039062 C41.240625,36.9835937 42.3421875,36.240625 43.2914063,35.29375 C44.2382812,34.346875 44.9835937,33.2429688 45.5015625,32.0148437 C46.040625,30.7421875 46.3125,29.3921875 46.3125,28 C46.3125,26.6078125 46.040625,25.2578125 45.5039062,23.9875 C44.9835937,22.759375 44.240625,21.6554688 43.2914063,20.7085937 L43.2914063,20.7085937 Z" id="3" transform="translate(36.000000, 28.000000) scale(1, -1) translate(-36.000000, -28.000000) "></path>
                    </g>
                </g>
            </g>
        </g>
    </g>
</svg>