<?xml version="1.0" encoding="UTF-8"?>
<svg width="24px" height="24px" viewBox="0 0 24 24" version="1.1" xmlns="http://www.w3.org/2000/svg" xmlns:xlink="http://www.w3.org/1999/xlink">
    <!-- Generator: Sketch 59.1 (86144) - https://sketch.com -->
    <title>1</title>
    <desc>Created with Sketch.</desc>
    <g id="页面-1" stroke="none" stroke-width="1" fill="none" fill-rule="evenodd">
        <g id="画板" transform="translate(-687.000000, -167.000000)" fill="#4393F5">
            <g id="反馈:6/警告提示/图标和文本信息" transform="translate(663.000000, 151.000000)">
                <g id="反馈/警告提示/图标和文本含辅助文字/信息">
                    <path d="M36,40 C29.371875,40 24,34.628125 24,28 C24,21.371875 29.371875,16 36,16 C42.628125,16 48,21.371875 48,28 C48,34.628125 42.628125,40 36,40 L36,40 Z M43.2914063,20.7085937 C42.3445313,19.7617188 41.240625,19.0164062 40.0125,18.4984375 C38.7421875,17.959375 37.3921875,17.6875 36,17.6875 C34.6078125,17.6875 33.2578125,17.959375 31.9875,18.4960938 C30.759375,19.0164062 29.6578125,19.759375 28.7085937,20.70625 C27.7617188,21.653125 27.0164062,22.7570313 26.4984375,23.9851562 C25.959375,25.2578125 25.6875,26.6078125 25.6875,28 C25.6875,29.3921875 25.959375,30.7421875 26.4960938,32.0125 C27.0164062,33.240625 27.759375,34.3421875 28.70625,35.2914063 C29.653125,36.2382812 30.7570313,36.9835937 31.9851563,37.5015625 C33.2578125,38.040625 34.6078125,38.3125 36,38.3125 C37.3921875,38.3125 38.7421875,38.040625 40.0125,37.5039062 C41.240625,36.9835937 42.3421875,36.240625 43.2914063,35.29375 C44.2382812,34.346875 44.9835937,33.2429688 45.5015625,32.0148437 C46.040625,30.7421875 46.3125,29.3921875 46.3125,28 C46.3125,26.6078125 46.040625,25.2578125 45.5039062,23.9875 C44.9835937,22.759375 44.240625,21.6554688 43.2914063,20.7085937 L43.2914063,20.7085937 Z M38.7703125,23.4625 L36.7734375,23.4625 L36.7734375,31.6679688 C36.7734375,32.134375 36.3960937,32.5117188 35.9296875,32.5117188 L35.9296875,32.5117188 L35.0859375,32.5117188 L33.6796875,32.5117188 C33.2132813,32.5117188 32.8359375,32.134375 32.8359375,31.6679688 L32.8359375,31.6679688 C32.8359375,31.2015625 33.2132813,30.8242188 33.6796875,30.8242188 L35.0859375,30.8242188 L35.0859375,23.4625 L33.0890625,23.4625 C32.6226563,23.4625 32.2453125,23.0851562 32.2453125,22.61875 L32.2453125,22.61875 C32.2453125,22.1523438 32.6226563,21.775 33.0890625,21.775 L35.0859375,21.775 L36.7734375,21.775 L38.7703125,21.775 C39.2367188,21.775 39.6140625,22.1523438 39.6140625,22.61875 L39.6140625,22.61875 C39.6140625,23.0851563 39.2367188,23.4625 38.7703125,23.4625 L38.7703125,23.4625 Z M35.0859375,34.8320312 C35.0859375,35.2980215 35.4636972,35.6757812 35.9296875,35.6757812 C36.3956778,35.6757812 36.7734375,35.2980215 36.7734375,34.8320312 C36.7734375,34.366041 36.3956778,33.9882812 35.9296875,33.9882812 C35.4636972,33.9882812 35.0859375,34.366041 35.0859375,34.8320312 L35.0859375,34.8320312 Z" id="1" transform="translate(36.000000, 28.000000) scale(1, -1) translate(-36.000000, -28.000000) "></path>
                </g>
            </g>
        </g>
    </g>
</svg>