<?xml version="1.0" encoding="UTF-8"?>
<svg width="24px" height="24px" viewBox="0 0 24 24" version="1.1" xmlns="http://www.w3.org/2000/svg" xmlns:xlink="http://www.w3.org/1999/xlink">
    <!-- Generator: Sketch 59.1 (86144) - https://sketch.com -->
    <title>4</title>
    <desc>Created with Sketch.</desc>
    <g id="页面-1" stroke="none" stroke-width="1" fill="none" fill-rule="evenodd">
        <g id="画板" transform="translate(-687.000000, -614.000000)" fill="#FFBF00">
            <g id="反馈:6/警告提示:1/图标和文本提示:12" transform="translate(663.000000, 598.000000)">
                <g id="反馈:6/警告提示/图标和文本提示">
                    <g id="反馈/警告提示/图标和文本含辅助文字/提示" transform="translate(0.000000, -0.000000)">
                        <path d="M36,38.3125 C37.3921875,38.3125 38.7421875,38.040625 40.0125,37.5039062 C41.240625,36.9835937 42.3421875,36.240625 43.2914063,35.29375 C44.2382812,34.346875 44.9835937,33.2429688 45.5015625,32.0148437 C46.040625,30.7421875 46.3125,29.3921875 46.3125,28 C46.3125,26.6078125 46.040625,25.2578125 45.5039062,23.9875 C44.9835937,22.759375 44.240625,21.6578125 43.29375,20.7085937 C42.346875,19.7617188 41.2429688,19.0164062 40.0148437,18.4984375 C38.7421875,17.959375 37.3921875,17.6875 36,17.6875 C34.6078125,17.6875 33.2578125,17.959375 31.9875,18.4960938 C30.759375,19.0164062 29.6578125,19.759375 28.7085937,20.70625 C27.7617188,21.653125 27.0164062,22.7570313 26.4984375,23.9851562 C25.959375,25.2578125 25.6875,26.6078125 25.6875,28 C25.6875,29.3921875 25.959375,30.7421875 26.4960938,32.0125 C27.0164062,33.240625 27.759375,34.3421875 28.70625,35.2914063 C29.653125,36.2382812 30.7570313,36.9835937 31.9851563,37.5015625 C33.2578125,38.040625 34.6078125,38.3125 36,38.3125 L36,38.3125 Z M36,40 C29.371875,40 24,34.628125 24,28 C24,21.371875 29.371875,16 36,16 C42.628125,16 48,21.371875 48,28 C48,34.628125 42.628125,40 36,40 L36,40 L36,40 Z M36,25 C35.4820312,25 35.0625,25.4195312 35.0625,25.9375 L35.0625,34.5859375 C35.0625,35.1039063 35.4820312,35.5234375 36,35.5234375 C36.5179688,35.5234375 36.9375,35.1039063 36.9375,34.5859375 L36.9375,25.9375 C36.9375,25.4195312 36.5179688,25 36,25 L36,25 Z M34.9453125,22.4453125 C34.9453125,23.0278003 35.4175122,23.5 36,23.5 C36.5824878,23.5 37.0546875,23.0278003 37.0546875,22.4453125 C37.0546875,21.8628247 36.5824878,21.390625 36,21.390625 C35.4175122,21.390625 34.9453125,21.8628247 34.9453125,22.4453125 L34.9453125,22.4453125 Z" id="4" transform="translate(36.000000, 28.000000) scale(1, -1) translate(-36.000000, -28.000000) "></path>
                    </g>
                </g>
            </g>
        </g>
    </g>
</svg>